<svg version="1.1" id="Layer_1" xmlns="http://www.w3.org/2000/svg" xmlns:xlink="http://www.w3.org/1999/xlink" viewBox="0 0 512.00 512.00" xml:space="preserve" width="105px" height="105px" fill="#080808" stroke="#080808"><g id="SVGRepo_bgCarrier" stroke-width="0"></g><g id="SVGRepo_tracerCarrier" stroke-linecap="round" stroke-linejoin="round"></g><g id="SVGRepo_iconCarrier"> <path style="fill:#ffffff;" d="M271.663,298.283h-31.347v-36.034c0-9.902-8.056-17.959-17.959-17.959H98.391 c-27.187,0-49.305-22.118-49.305-49.306s22.117-49.306,49.305-49.306h252.506c9.902,0,17.959-8.056,17.959-17.959 s-8.056-17.958-17.959-17.958H211.903c-27.187,0-49.306-22.118-49.306-49.306V32.016h31.347v28.443 c0,9.902,8.056,17.959,17.959,17.959h138.993c27.187,0,49.306,22.117,49.306,49.305s-22.118,49.306-49.306,49.306H98.391 c-9.902,0-17.958,8.056-17.958,17.959s8.055,17.959,17.958,17.959h123.967c27.187,0,49.306,22.118,49.306,49.306L271.663,298.283 L271.663,298.283z"></path> <polygon style="fill:#fffafa;" points="512,479.983 256,479.983 224.653,378.684 256,277.385 512,277.385 "></polygon> <rect y="277.389" style="fill:#ffffff;" width="256" height="202.595"></rect> <g> <rect x="34.659" y="312.361" style="fill:#ffffff;" width="35.389" height="31.347"></rect> <rect x="92.85" y="312.361" style="fill:#ffffff;" width="35.388" height="31.347"></rect> <rect x="151.03" y="312.361" style="fill:#ffffff;" width="35.388" height="31.347"></rect> <rect x="209.209" y="312.361" style="fill:#ffffff;" width="35.388" height="31.347"></rect> </g> <g> <rect x="267.4" y="312.361" style="fill:#ffffff;" width="35.388" height="31.347"></rect> <rect x="325.58" y="312.361" style="fill:#ffffff;" width="35.388" height="31.347"></rect> <rect x="383.76" y="312.361" style="fill:#ffffff;" width="35.388" height="31.347"></rect> <rect x="441.95" y="312.361" style="fill:#ffffff;" width="35.388" height="31.347"></rect> </g> <g> <rect x="34.659" y="363.007" style="fill:#ffffff;" width="35.389" height="31.347"></rect> <rect x="92.85" y="363.007" style="fill:#ffffff;" width="35.388" height="31.347"></rect> <rect x="151.03" y="363.007" style="fill:#ffffff;" width="35.388" height="31.347"></rect> <rect x="209.209" y="363.007" style="fill:#ffffff;" width="35.388" height="31.347"></rect> </g> <g> <rect x="267.4" y="363.007" style="fill:#ffffff;" width="35.388" height="31.347"></rect> <rect x="325.58" y="363.007" style="fill:#ffffff;" width="35.388" height="31.347"></rect> <rect x="383.76" y="363.007" style="fill:#ffffff;" width="35.388" height="31.347"></rect> <rect x="441.95" y="363.007" style="fill:#ffffff;" width="35.388" height="31.347"></rect> </g> <g> <rect x="34.659" y="413.664" style="fill:#ffffff;" width="35.389" height="31.347"></rect> <rect x="92.85" y="413.664" style="fill:#ffffff;" width="35.388" height="31.347"></rect> </g> <rect x="151.03" y="413.664" style="fill:#ffffff;" width="209.941" height="31.347"></rect> <rect x="151.03" y="413.664" style="fill:#ffffff;" width="104.97" height="31.347"></rect> <g> <rect x="383.76" y="413.664" style="fill:#ffffff;" width="35.388" height="31.347"></rect> <rect x="441.95" y="413.664" style="fill:#ffffff;" width="35.388" height="31.347"></rect> </g> </g></svg>